# xmcd
#
# Track frame offsets: 
#        150
#        17073
#        40187
#        52743
#        64957
#        78391
#        91728
#        102981
#        116091
#        127219
#        135721
#        146595
#        158775
#        172014
#        200676
#        212228
#        222765
#        233785
#        246704
#        258668
#        271067
#        285438
#
# Disc length: 4255 seconds
#
# Revision: 1
# Processed by: cddbd v1.5.2PL0 Copyright (c) Steve Scherf et al.
# Submitted via: ExactAudioCopy v0.99pb5
#
DISCID=4e109d16
DTITLE=Millésime - Blues Music - CD5 The other side of the blues
DYEAR=2000
DGENRE=Blues
TTITLE0=Muddy Waters - Off the wall
TTITLE1=Freddie King - Feelin' alright
TTITLE2=Sonny Boy Williamson - Come back home
TTITLE3=Louis Jordan - Reet petite and gone
TTITLE4=Louis Jordan - G.I. give
TTITLE5=Jimmy Rushing - Sent for you yesterday
TTITLE6=Fats Domino - Blueberry hill
TTITLE7=Big Maceo - Chicago break down
TTITLE8=Chuck Berry - Rock'n'roll music
TTITLE9=Jerry Lee Lewis - Great balls of fire
TTITLE10=Little Richard - Tutti frutti
TTITLE11=Dinah Washington - Oo-wee walkie talkie
TTITLE12=Dinah Washington - When a woman loves a man
TTITLE13=Ray Charles - What'd I say
TTITLE14=Ray Charles - Ray Charles blues
TTITLE15=Sam and Dave - Hold on I'm coming
TTITLE16=Rufus Thomas - Walking the dog
TTITLE17=Percy Sledge - When a man loves a woman
TTITLE18=The Platters - Only you
TTITLE19=Sarah Vaughan - On Green dolphin street
TTITLE20=Sarah Vaughan - I can't give you anithing but love
TTITLE21=Ray Charles - Georgia on my mind
EXTD=YEAR: 2000
EXTT0=
EXTT1=
EXTT2=
EXTT3=
EXTT4=
EXTT5=
EXTT6=
EXTT7=
EXTT8=
EXTT9=
EXTT10=
EXTT11=
EXTT12=
EXTT13=
EXTT14=
EXTT15=
EXTT16=
EXTT17=
EXTT18=
EXTT19=
EXTT20=
EXTT21=
PLAYORDER=
